#!OML:ASF E:\Style4\Style4.ASF
:FULLY-SPECIFIED
:DEGREES
1750
root 0.573232 17.2676 -1.03302 4.5988 -17.4956 3.84348
lowerback 15.6317 0.510774 -2.16798
upperback 8.01663 0.312767 0.719532
thorax -0.279899 0.0467024 1.92843
lowerneck 2.78429 -6.15721 -6.3858
upperneck -2.83551 -8.34227 4.48333
head -0.891476 -4.18005 2.61985
rclavicle -1.70955e-014 1.19271e-014
rhumerus -10.5082 3.32078 -81.536
rradius 120.235
rwrist 20.2351
rhand 25.7319 -3.64595
rfingers 7.12502
rthumb 49.8323 -24.9563
lclavicle -1.70955e-014 1.19271e-014
lhumerus -1.24955 -18.2248 80.2484
lradius 118.491
lwrist -17.4145
lhand 20.436 37.8832
lfingers 7.12502
lthumb 44.9411 61.406
rfemur -31.8838 6.76407 12.4172
rtibia 46.5421
rfoot -18.7199 -10.1875
rtoes -17.0861
lfemur -25.0821 10.7008 -24.6941
ltibia 44.2991
lfoot -25.8482 13.7927
ltoes -11.4497
1751
root 0.574943 17.304 -1.01885 4.90601 -17.5716 3.73611
lowerback 15.3867 0.503225 -1.96982
upperback 7.97715 0.335607 0.765396
thorax -0.194412 0.0626109 1.86111
lowerneck 2.7156 -6.14639 -6.43985
upperneck -2.86337 -8.32754 4.42404
head -0.889615 -4.17047 2.60771
rclavicle 2.94201e-014 -3.18055e-015
rhumerus -10.9987 3.4109 -81.5538
rradius 120.705
rwrist 19.8497
rhand 25.3911 -3.57217
rfingers 7.12502
rthumb 49.52 -25.0433
lclavicle 2.94201e-014 -3.18055e-015
lhumerus -1.99824 -18.3971 80.6362
lradius 118.781
lwrist -16.8067
lhand 20.5013 37.9229
lfingers 7.12502
lthumb 45.0018 61.4217
rfemur -31.7946 6.86456 12.473
rtibia 45.8861
rfoot -18.4519 -10.2005
rtoes -17.2306
lfemur -25.002 10.5989 -24.6591
ltibia 43.6958
lfoot -25.609 14.0311
ltoes -11.657
1752
root 0.576827 17.342 -1.00604 5.25484 -17.6079 3.62692
lowerback 15.2346 0.455868 -1.80736
upperback 7.87054 0.299979 0.828397
thorax -0.225915 0.0501797 1.84065
lowerneck 2.52791 -6.10835 -6.50005
upperneck -2.76632 -8.27236 4.29945
head -0.832111 -4.13966 2.56644
rclavicle 1.47101e-014 -2.38542e-015
rhumerus -11.5156 3.63136 -81.5307
rradius 121.227
rwrist 19.3604
rhand 24.8422 -3.23374
rfingers 7.12502
rthumb 49.0162 -24.9581
lclavicle 1.47101e-014 -2.38542e-015
lhumerus -2.81136 -18.436 80.9344
lradius 119.183
lwrist -16.1303
lhand 20.41 37.8192
lfingers 7.12502
lthumb 44.9169 61.3514
rfemur -31.7275 6.91211 12.5265
rtibia 45.1855
rfoot -18.1938 -10.2021
rtoes -17.7355
lfemur -24.9542 10.4502 -24.6222
ltibia 43.0469
lfoot -25.3361 14.3068
ltoes -12.0696
1753
root 0.577441 17.3801 -0.997263 5.57919 -17.5985 3.60897
lowerback 15.1381 0.390395 -1.76321
upperback 7.74229 0.224088 0.869845
thorax -0.307535 0.0155747 1.87041
lowerneck 2.26424 -6.07078 -6.56347
upperneck -2.56518 -8.2129 4.1953
head -0.72769 -4.10755 2.52653
rclavicle -9.93923e-015 3.10104e-014
rhumerus -12.0363 3.87215 -81.4432
rradius 121.845
rwrist 18.8234
rhand 24.3487 -2.97536
rfingers 7.12502
rthumb 48.5626 -24.9214
lclavicle -9.93923e-015 3.10104e-014
lhumerus -3.64696 -18.4459 81.1266
lradius 119.73
lwrist -15.4461
lhand 20.1684 37.6373
lfingers 7.12502
lthumb 44.6919 61.2572
rfemur -31.6616 6.92762 12.4875
rtibia 44.4694
rfoot -17.88 -10.1866
rtoes -17.6542
lfemur -24.8887 10.2504 -24.6608
ltibia 42.3435
lfoot -25.1204 14.4225
ltoes -11.774
